<?xml version="1.0" encoding="utf-8"?>
<!-- Generator: Adobe Illustrator 23.0.6, SVG Export Plug-In . SVG Version: 6.00 Build 0)  -->
<svg version="1.1" id="Layer_1" xmlns="http://www.w3.org/2000/svg" xmlns:xlink="http://www.w3.org/1999/xlink" x="0px" y="0px"
	 viewBox="0 0 100 105.9" style="enable-background:new 0 0 100 105.9;" xml:space="preserve">
<style type="text/css">
	.st0{fill:#B3B3B3;}
	.st1{fill:#A6120D;}
	.st2{fill:#DD1B16;}
	.st3{fill:#F2F2F2;}
</style>
<path class="st0" d="M49.8,0L0,17.5l7.9,65.3l42,23.1l42.2-23.4l7.9-65.3L49.8,0z"/>
<path class="st1" d="M95,21L49.7,5.6v94.9l38-21L95,21L95,21z"/>
<path class="st2" d="M5.6,21.3l6.7,58.4l37.4,20.7V5.6L5.6,21.3L5.6,21.3z"/>
<path class="st3" d="M62.2,56.1l-12.5,5.8H36.6l-6.2,15.5l-11.5,0.2L49.7,9L62.2,56.1L62.2,56.1z M61,53.1L49.8,31l-9.2,21.8h9.1
	L61,53.1L61,53.1z"/>
<path class="st0" d="M49.7,9l0.1,22l10.4,21.8H49.7l0,9.1l14.5,0L71,77.6l11,0.2L49.7,9L49.7,9z"/>
</svg>
