<?xml version="1.0" encoding="utf-8"?>
<!-- Generator: Adobe Illustrator 23.0.6, SVG Export Plug-In . SVG Version: 6.00 Build 0)  -->
<svg version="1.1" id="Layer_1" xmlns="http://www.w3.org/2000/svg" xmlns:xlink="http://www.w3.org/1999/xlink" x="0px" y="0px"
	 viewBox="0 0 60 48.28" style="enable-background:new 0 0 60 48.28;" xml:space="preserve">
<style type="text/css">
	.st0{fill:#FFFFFF;}
</style>
<g>
	<path class="st0" d="M4.79,47.78c-2.37,0-4.29-1.93-4.29-4.29V4.79c0-2.37,1.93-4.29,4.29-4.29h50.41c2.37,0,4.29,1.93,4.29,4.29
		v38.7c0,2.37-1.93,4.29-4.29,4.29H4.79z"/>
	<path d="M55.21,1C57.3,1,59,2.7,59,4.79v38.7c0,2.09-1.7,3.79-3.79,3.79H4.79C2.7,47.28,1,45.58,1,43.49V4.79C1,2.7,2.7,1,4.79,1
		H55.21 M55.21,0H4.79C2.15,0,0,2.15,0,4.79v38.7c0,2.65,2.15,4.79,4.79,4.79h50.41c2.65,0,4.79-2.15,4.79-4.79V4.79
		C60,2.15,57.85,0,55.21,0L55.21,0z"/>
</g>
<g>
	<path d="M18.23,32.42L3.11,24.83v-1.04l15.12-8.47v2.64L6.95,24.21v0.07l11.29,5.52V32.42z"/>
	<path d="M37.25,9.45L25.16,38.84h-2.69L34.53,9.45H37.25z"/>
	<path d="M56.89,24.83l-15.12,7.59V29.8l11.32-5.48v-0.11l-11.32-6.26v-2.64l15.12,8.47V24.83z"/>
</g>
</svg>
