<?xml version="1.0" encoding="utf-8"?>
<!-- Generator: Adobe Illustrator 23.0.6, SVG Export Plug-In . SVG Version: 6.00 Build 0)  -->
<svg version="1.1" id="Layer_1" xmlns="http://www.w3.org/2000/svg" xmlns:xlink="http://www.w3.org/1999/xlink" x="0px" y="0px"
	 viewBox="0 0 120 129.18" style="enable-background:new 0 0 120 129.18;" xml:space="preserve">
<g>
	<path d="M37.3,110.4L37.3,110.4c-3.75,0-6.78-3.04-6.78-6.78V57.18c0-3.75,3.04-6.78,6.78-6.78h0c3.75,0,6.78,3.04,6.78,6.78v46.43
		C44.09,107.36,41.05,110.4,37.3,110.4z"/>
</g>
<g>
	<path d="M14.61,110.4L14.61,110.4c-3.75,0-6.78-3.04-6.78-6.78V57.18c0-3.75,3.04-6.78,6.78-6.78h0c3.75,0,6.78,3.04,6.78,6.78
		v46.43C21.39,107.36,18.35,110.4,14.61,110.4z"/>
</g>
<g>
	<path d="M60,110.4L60,110.4c-3.75,0-6.78-3.04-6.78-6.78V57.18c0-3.75,3.04-6.78,6.78-6.78h0c3.75,0,6.78,3.04,6.78,6.78v46.43
		C66.78,107.36,63.75,110.4,60,110.4z"/>
</g>
<g>
	<path d="M82.7,110.4L82.7,110.4c-3.75,0-6.78-3.04-6.78-6.78V57.18c0-3.75,3.04-6.78,6.78-6.78h0c3.75,0,6.78,3.04,6.78,6.78v46.43
		C89.48,107.36,86.44,110.4,82.7,110.4z"/>
</g>
<g>
	<path d="M105.39,110.4L105.39,110.4c-3.75,0-6.78-3.04-6.78-6.78V57.18c0-3.75,3.04-6.78,6.78-6.78h0c3.75,0,6.78,3.04,6.78,6.78
		v46.43C112.17,107.36,109.14,110.4,105.39,110.4z"/>
</g>
<rect x="5.22" y="109.35" width="109.57" height="10.96"/>
<rect x="5.22" y="39.44" width="109.57" height="10.96"/>
<path d="M117.39,36.62H2.61V25.14C21.56,16.76,41.05,8.38,60,0c19.31,8.38,38.08,16.76,57.39,25.14
	C117.39,28.97,117.39,32.8,117.39,36.62z"/>
<rect y="117.18" width="120" height="12"/>
</svg>
