<?xml version="1.0" encoding="utf-8"?>
<!-- Generator: Adobe Illustrator 23.0.6, SVG Export Plug-In . SVG Version: 6.00 Build 0)  -->
<svg version="1.1" id="Layer_1" xmlns="http://www.w3.org/2000/svg" xmlns:xlink="http://www.w3.org/1999/xlink" x="0px" y="0px"
	 viewBox="0 0 60 48.3" style="enable-background:new 0 0 60 48.3;" xml:space="preserve">
<style type="text/css">
	.st0{fill:#FFFFFF;}
</style>
<g>
	<path class="st0" d="M4.8,47.8c-2.4,0-4.3-1.9-4.3-4.3V4.8c0-2.4,1.9-4.3,4.3-4.3h50.4c2.4,0,4.3,1.9,4.3,4.3v38.7
		c0,2.4-1.9,4.3-4.3,4.3C55.2,47.8,4.8,47.8,4.8,47.8z"/>
	<path d="M55.2,1C57.3,1,59,2.7,59,4.8v38.7c0,2.1-1.7,3.8-3.8,3.8H4.8c-2.1,0-3.8-1.7-3.8-3.8V4.8C1,2.7,2.7,1,4.8,1H55.2 M55.2,0
		H4.8C2.2,0,0,2.2,0,4.8v38.7c0,2.7,2.2,4.8,4.8,4.8h50.4c2.7,0,4.8-2.2,4.8-4.8V4.8C60,2.2,57.8,0,55.2,0L55.2,0z"/>
</g>
<path d="M39.4,10c0,0.8,0,1.5,0,2.3L26.5,25.2l-1.9-1.9l-2.3,2.3l1,1c-0.9,0.1-1.8,0.4-2.5,1.1l-9.7,9.7c-1.5,1.5-1.5,3.9,0,5.3
	l0.3,0.3c1.5,1.5,3.9,1.5,5.3,0l9.7-9.7c0.7-0.7,1-1.6,1.1-2.5l1,1l2.3-2.3l-1.9-1.9L42,14.6c0.7,0,1.4,0.1,2.2,0.1L50,6.8l-2.7-2.7
	C44.7,6.1,42.1,8,39.4,10z"/>
</svg>
