<?xml version="1.0" encoding="utf-8"?>
<!-- Generator: Adobe Illustrator 23.0.6, SVG Export Plug-In . SVG Version: 6.00 Build 0)  -->
<svg version="1.1" id="Layer_1" xmlns="http://www.w3.org/2000/svg" xmlns:xlink="http://www.w3.org/1999/xlink" x="0px" y="0px"
	 viewBox="0 0 60 48.28" style="enable-background:new 0 0 60 48.28;" xml:space="preserve">
<style type="text/css">
	.st0{fill:#FFFFFF;}
	.st1{fill:#FFFFFF;stroke:#000000;stroke-miterlimit:10;}
	.st2{fill:none;stroke:#000000;stroke-miterlimit:10;}
</style>
<g>
	<path class="st0" d="M4.79,47.78c-2.37,0-4.29-1.93-4.29-4.29V4.79c0-2.37,1.93-4.29,4.29-4.29h50.41c2.37,0,4.29,1.93,4.29,4.29
		v38.7c0,2.37-1.93,4.29-4.29,4.29H4.79z"/>
	<path d="M55.21,1C57.3,1,59,2.7,59,4.79v38.7c0,2.09-1.7,3.79-3.79,3.79H4.79C2.7,47.28,1,45.58,1,43.49V4.79C1,2.7,2.7,1,4.79,1
		H55.21 M55.21,0H4.79C2.15,0,0,2.15,0,4.79v38.7c0,2.65,2.15,4.79,4.79,4.79h50.41c2.65,0,4.79-2.15,4.79-4.79V4.79
		C60,2.15,57.85,0,55.21,0L55.21,0z"/>
</g>
<path class="st1" d="M4.79,12h50.41"/>
<rect x="6.5" y="3.64" class="st1" width="13" height="5"/>
<g>
	<circle class="st1" cx="30" cy="29.64" r="15"/>
	<ellipse class="st2" cx="30" cy="29.64" rx="2.4" ry="15"/>
	<ellipse class="st2" cx="30" cy="29.64" rx="6" ry="15"/>
	<ellipse class="st2" cx="30" cy="29.64" rx="10.8" ry="15"/>
	<ellipse class="st2" cx="30" cy="29.64" rx="15" ry="2.4"/>
	<ellipse class="st2" cx="30" cy="29.64" rx="15" ry="6"/>
	<ellipse class="st2" cx="30" cy="29.64" rx="15" ry="10.8"/>
</g>
</svg>
